<?xml version="1.0" encoding="UTF-8" standalone="no"?>
<svg
   width="1650.4854"
   height="556.84546"
   viewBox="0 0 1650.4854 556.84546"
   version="1.1"
   id="svg862"
   sodipodi:docname="logo.svg"
   inkscape:version="1.1.1 (3bf5ae0d25, 2021-09-20)"
   xmlns:inkscape="http://www.inkscape.org/namespaces/inkscape"
   xmlns:sodipodi="http://sodipodi.sourceforge.net/DTD/sodipodi-0.dtd"
   xmlns="http://www.w3.org/2000/svg"
   xmlns:svg="http://www.w3.org/2000/svg">
  <defs
     id="defs866" />
  <sodipodi:namedview
     id="namedview864"
     pagecolor="#ffffff"
     bordercolor="#666666"
     borderopacity="1.0"
     inkscape:pageshadow="2"
     inkscape:pageopacity="0.0"
     inkscape:pagecheckerboard="0"
     showgrid="false"
     fit-margin-top="0"
     fit-margin-left="0"
     fit-margin-right="0"
     fit-margin-bottom="0"
     inkscape:zoom="0.5635"
     inkscape:cx="932.56433"
     inkscape:cy="426.79681"
     inkscape:window-width="2560"
     inkscape:window-height="1377"
     inkscape:window-x="3832"
     inkscape:window-y="341"
     inkscape:window-maximized="1"
     inkscape:current-layer="svg862" />
  <path
     d="m 1375.6884,496.07814 c -1.067,21.667 -6.145,35.339 -17.195,46.291 -6.345,6.29 -13.822,10.55 -22.714,12.943 -4.652,1.253 12.065,1.433 137.82,1.491 92.908,0.043 144.99,-0.29 148.465,-0.949 11.375,-2.157 20.338,-9.022 25.496,-19.528 2.611,-5.318 2.925,-6.978 2.925,-15.478 0,-8.746 -0.268,-10.066 -3.292,-16.208 -4.879,-9.91 -13.031,-16.145 -24.76,-18.934 -3.605,-0.858 -37.674,-1.278 -125.544,-1.548 l -120.596,-0.371 -0.605,12.291"
     stroke="none"
     fill="#e3925b"
     fill-rule="evenodd"
     id="path846" />
  <path
     d="m 1375.9854,421.36914 v 36.5 l 119.75,-0.015 c 130.603,-0.016 126.729,0.145 137.467,-5.7 5.927,-3.226 10.784,-8.429 14.466,-15.499 2.458,-4.721 2.756,-6.356 2.785,-15.286 0.026,-8.185 -0.36,-10.849 -2.129,-14.676 -2.902,-6.279 -9.7,-13.466 -15.532,-16.422 -11.043,-5.596 -6.149,-5.402 -136.517,-5.402 h -120.29 v 36.5"
     stroke="none"
     fill="#ffd459"
     fill-rule="evenodd"
     id="path848" />
  <path
     d="m 1375.6524,285.53614 c -0.367,0.366 -0.667,16.791 -0.667,36.5 v 35.833 l 120.75,-0.015 c 129.576,-0.016 127.35,0.066 137.323,-5.022 5.745,-2.931 11.194,-8.769 14.533,-15.569 2.609,-5.314 2.893,-6.877 2.884,-15.894 -0.01,-9.475 -0.19,-10.332 -3.43,-16.326 -6.177,-11.426 -15.817,-17.437 -30.699,-19.142 -9.867,-1.131 -239.581,-1.479 -240.694,-0.365 m -0.214,135.833 c 0,20.35 0.133,28.533 0.296,18.185 0.163,-10.349 0.162,-26.999 -10e-4,-37 -0.163,-10.002 -0.296,-1.535 -0.295,18.815"
     stroke="none"
     fill="#e6715c"
     fill-rule="evenodd"
     id="path850" />
  <path
     d="m 1375.4404,187.12514 c -0.265,0.69 -0.363,17.003 -0.218,36.25 l 0.263,34.994 119.5,0.274 c 104.615,0.24 120.372,0.082 126.5,-1.267 12.743,-2.804 21.187,-9.349 26.399,-20.461 2.23,-4.754 2.601,-6.902 2.601,-15.046 0,-8.299 -0.342,-10.195 -2.702,-15 -5.269,-10.726 -13.878,-17.157 -26.597,-19.87 -8.063,-1.719 -245.084,-1.598 -245.746,0.126"
     stroke="none"
     fill="#c570fa"
     fill-rule="evenodd"
     id="path852" />
  <path
     d="m 1375.6524,86.53614 c -0.367,0.366 -0.667,16.791 -0.667,36.5 v 35.833 l 120.75,-0.015 c 129.576,-0.016 127.35,0.066 137.323,-5.022 5.551,-2.832 11.35,-9.089 14.648,-15.803 2.476,-5.044 2.779,-6.749 2.778,-15.66 0,-9.006 -0.277,-10.526 -2.785,-15.286 -3.762,-7.142 -8.597,-12.288 -14.63,-15.572 -10.483,-5.706 -8.041,-5.606 -137.667,-5.625 -65.496,-0.009 -119.384,0.283 -119.75,0.65"
     stroke="none"
     fill="#5ba9e3"
     fill-rule="evenodd"
     id="path854" />
  <path
     d="m 1309.0284,1.0081399 c -6.858,1.136 -14.505,4.686 -19.043,8.84 l -3.5,3.2030001 3.5,-2.162 c 22.792,-14.0770001 51.315,-11.61500005 69.075,5.962 9.721,9.622 14.811,22.822 16.489,42.768 l 0.694,8.25 117.621,-0.02 c 70.188,-0.012 120.312,-0.409 124.293,-0.985 14.856,-2.149 24.318,-8.184 29.558,-18.853 2.406,-4.9 2.769,-6.826 2.765,-14.642 0,-7.025 -0.466,-9.999 -2.106,-13.551 -2.75,-5.958 -7.618,-11.4130001 -12.998,-14.5660001 -9.168,-5.37199995 -7.463,-5.31999995 -170.391,-5.23099995 -84.636,0.046 -152.888,0.478 -155.957,0.98699995"
     stroke="none"
     fill="#78ff93"
     fill-rule="evenodd"
     id="path856" />
  <path
     d=""
     stroke="none"
     fill="#e29483"
     fill-rule="evenodd"
     id="path858" />
  <path
     d="m 912.4854,3.4771399 c -3.85,0.794 -10.6,3.205 -15,5.358 -21.404,10.4710001 -32.416,25.7670001 -49.12,68.2290001 -4.177,10.618 -40.226,102.105 -80.108,203.305 -77.029,195.455 -79.585,202.101 -81.829,212.77 -4.338,20.624 0.926,37.202 16.037,50.504 11.647,10.251 21.686,13.688 37.937,12.987 14.644,-0.632 20.987,-2.997 28.633,-10.674 9.82,-9.859 18.005,-28.033 42.034,-93.326 l 12.416,-33.739 108.873,0.239 108.873,0.239 14.254,37.5 c 22.604,59.466 30.903,77.238 40.589,86.927 9.314,9.317 18.912,13.006 33.951,13.049 15.78,0.045 26.593,-4.482 38.016,-15.915 15.199,-15.211 18.44,-29.738 12.08,-54.152 -3.833,-14.716 -1.719,-9.362 -80.127,-202.909 -36.43,-89.925 -71.767,-177.488 -78.527,-194.585 -6.76,-17.097 -13.968,-34.422 -16.018,-38.5 -13.986,-27.819 -30.837,-42.4450001 -54.684,-47.4610001 -8.766,-1.844 -28.993,-1.763 -38.28,0.154 m 399.887,-0.661 c -7.791,1.221 -14.928,3.88 -20.525,7.6460001 -2.785,1.874 -5.457,3.407 -5.939,3.407 -1.591,0 -9.175,10.393 -12.04,16.5 -1.549,3.3 -3.618,8.925 -4.599,12.5 -1.688,6.15 -1.784,18.891 -1.784,236.5 v 230 l 2.355,8.233 c 7.303,25.532 27.656,40.567 52.645,38.891 15.923,-1.067 25.943,-5.089 35.578,-14.28 8.337,-7.952 13.283,-18.261 15.996,-33.344 1.674,-9.304 1.668,-449.646 -0.01,-459 -3.661,-20.457 -12.885,-34.392 -27.628,-41.7400001 -9.798,-4.884 -23.324,-6.994 -34.053,-5.313 M 930.6044,119.86914 c -0.337,0.825 -18.085,50.1 -39.438,109.5 l -38.825,108 39.822,0.261 c 21.902,0.144 57.725,0.144 79.607,0 l 39.785,-0.261 -39.763,-108.5 c -21.869,-59.675 -39.945,-108.95 -40.168,-109.5 -0.224,-0.55 -0.682,-0.325 -1.02,0.5 m -369.215,41.827 c -10.078,3.484 -16.339,10.555 -20.77,23.459 l -2.134,6.214 -0.299,159.5 c -0.197,105.278 0.054,162.791 0.739,169.181 1.323,12.352 3.99,19.412 9.756,25.826 6.801,7.565 12.772,10.266 23.804,10.771 12.15,0.556 18.725,-1.843 26.58,-9.698 6.821,-6.821 9.551,-13.424 10.919,-26.412 1.293,-12.268 1.293,-312.068 0,-324.336 -1.361,-12.922 -4.056,-19.452 -10.888,-26.387 -7.187,-7.297 -13.876,-9.959 -24.899,-9.912 -4.688,0.019 -9.71,0.723 -12.808,1.794 m -240.534,105.712 c -19.989,3.114 -39.35,10.11 -54.417,19.664 -13.006,8.246 -27.221,22.506 -35.683,35.797 -28.229,44.336 -31.581,115.641 -7.672,163.195 20.402,40.577 55.966,63.958 106.317,69.897 14.145,1.668 46.382,0.61 58.621,-1.924 37.673,-7.801 68.168,-27.924 81.371,-53.698 11.669,-22.778 3.309,-41.376 -18.8,-41.823 -10.996,-0.222 -10.872,-0.298 -35.268,21.741 -23.306,21.054 -39.961,28.636 -63.339,28.835 -20.807,0.176 -34.172,-5.142 -48.041,-19.117 -7.038,-7.092 -9.361,-10.277 -13.205,-18.106 -5.537,-11.275 -8.569,-22.282 -9.424,-34.211 l -0.624,-8.711 80.897,-0.311 c 80.2,-0.309 80.965,-0.331 88.827,-2.545 20.234,-5.696 27.085,-14.503 28.294,-36.376 1.634,-29.535 -11.104,-62.706 -32.728,-85.23 -19.299,-20.102 -44.343,-32.764 -73.313,-37.066 -12.777,-1.897 -39.674,-1.903 -51.813,-0.011 m -299.417001,1.507 c -6.243,2.402 -12.6880005,8.644 -15.8640005,15.362 -5.62899996,11.906 -5.59099996,11.014 -5.57199996,128.8 0.019,115.989 0.018,115.973 5.02199996,125.936 3.176,6.324 11.0480005,13.368 17.7730005,15.902 7.789,2.935 21.514,2.451 28.157,-0.993 9.499,-4.925 14.508,-10.628 18.252,-20.781 2.046,-5.548 2.157,-8.041 2.865,-64.272 0.691,-54.882 1.267,-67.133 3.976,-84.5 4.184,-26.833 14.009,-45.521 27.313001,-51.953 11.787,-5.698 24.556,-5.312 48.005,1.454 15.225,4.393 18.343,4.714 24.55,2.524 9.681,-3.416 17.077,-11.487 19.619,-21.408 5.403,-21.09 -12.936,-39.484 -46.549,-46.689 -8.506,-1.823 -25.867,-1.783 -33.76,0.078 -14.487,3.415 -26.841001,13.234 -38.683001,30.744 -3.255,4.813 -6.287,8.75 -6.737,8.75 -0.451,0 -0.82,-1.728 -0.82,-3.84 0,-5.614 -3.617,-18.831 -6.5,-23.75 -3.329,-5.681 -8.908,-10.142 -14.932,-11.939 -7.061,-2.106 -19.879,-1.824 -26.115,0.575 m 314.047001,47.979 c -20.552,2.919 -36.017,14.9 -45.462,35.22 -3.873,8.332 -7.415,20.846 -8.633,30.505 l -0.663,5.25 h 64.129 64.129 v -2.869 c 0,-6.054 -3.19,-20.74 -6.3,-29.004 -9.227,-24.52 -26.957,-37.656 -53.2,-39.418 -4.4,-0.295 -10.7,-0.153 -14,0.316"
     stroke="none"
     fill="#040404"
     fill-rule="evenodd"
     id="path860" />
  <path
     style="fill:#ffffff;stroke-width:9.8261"
     d="M 24.788832,554.45934 C 18.575853,552.65216 9.0641059,543.91008 4.7521464,536.04399 2.0744703,531.15924 1.7199287,519.67143 1.2315013,421.96845 0.90633026,356.92259 1.3916978,308.24941 2.4410121,300.67743 5.5262002,278.41431 15.839274,268.41171 35.708243,268.41171 c 18.543791,0 26.689626,7.7441 31.308422,29.76435 1.121452,5.34656 2.576785,9.72101 3.234071,9.72101 0.657285,0 4.658891,-4.59183 8.892458,-10.20408 9.584921,-12.70629 16.507977,-19.21248 25.295036,-23.77191 22.00727,-11.41911 59.35619,-5.74275 79.11758,12.02444 14.80375,13.30983 15.83047,29.19053 2.73395,42.28705 -8.56149,8.56149 -15.89671,9.56028 -34.5595,4.70577 -38.99048,-10.1421 -55.417692,-5.26603 -67.201699,19.94739 -9.864428,21.10624 -12.012754,40.08806 -13.563322,119.8405 -1.197818,61.60903 -1.800857,65.19835 -12.537825,74.62554 -9.158772,8.0415 -21.478617,10.64459 -33.638582,7.10757 z"
     id="path1003" />
  <path
     style="fill:#ffffff;stroke-width:9.8261"
     d="m 324.75599,554.4258 c -16.57171,-2.31222 -44.3049,-12.02143 -56.08404,-19.63467 -28.38242,-18.34444 -46.23625,-44.0372 -55.93068,-80.48767 -5.19701,-19.54042 -4.74753,-65.59137 0.84872,-86.95652 10.94803,-41.79693 33.03704,-70.29915 66.80043,-86.19494 23.87044,-11.2382 33.38792,-13.11939 66.54836,-13.15367 25.7866,-0.0267 30.86976,0.46573 42.59094,4.12565 39.81981,12.43367 69.96836,41.03627 82.17092,77.95738 9.40367,28.45259 8.11153,53.75036 -3.32983,65.19172 -10.84309,10.8431 -14.93793,11.32942 -106.69944,12.67206 l -82.42159,1.20597 1.13277,9.02693 c 1.50571,11.99878 5.73453,26.85213 10.05738,35.32563 4.48214,8.78572 16.43082,21.79161 25.00007,27.21207 18.80632,11.89587 48.9075,12.33835 71.42779,1.04996 10.15088,-5.08818 17.10318,-10.28314 37.78105,-28.23113 15.93801,-13.83388 21.27254,-16.03659 31.7244,-13.09952 12.15258,3.41498 16.56376,9.21993 16.56376,21.79727 0,23.85861 -30.6083,53.64784 -67.88664,66.06999 -20.88307,6.95881 -55.42691,9.59322 -80.29437,6.12349 z m 84.29459,-172.69495 c 0,-10.44053 -6.20116,-30.20827 -12.68086,-40.42342 -10.45904,-16.48854 -27.32348,-24.94443 -50.31826,-25.22974 -35.82148,-0.44445 -58.31228,22.15135 -65.60361,65.90989 l -1.25672,7.54214 h 64.92973 64.92972 z"
     id="path1042" />
  <path
     style="fill:#ffffff;stroke-width:9.8261"
     d="m 562.55546,553.67853 c -8.66334,-3.06327 -17.5955,-12.39809 -20.63743,-21.56776 -1.75158,-5.27998 -2.40177,-44.43867 -2.87592,-173.2066 l -0.61267,-166.38419 5.43877,-11.39592 c 7.21935,-15.12677 14.14479,-19.60478 30.34537,-19.62141 9.41989,-0.01 12.85769,0.80908 17.90626,4.26456 8.09697,5.54196 13.27451,13.27648 15.55041,23.23013 2.63626,11.52971 2.57617,326.81155 -0.0646,339.1252 -1.4253,6.64592 -3.95841,11.36924 -9.07316,16.91808 -10.1001,10.95732 -21.60521,13.71965 -35.977,8.63791 z"
     id="path1081" />
  <path
     style="fill:#ffffff;stroke-width:9.8261"
     d="m 722.8142,553.9638 c -9.01047,-2.53581 -11.19787,-3.90597 -21.54487,-13.49537 -11.20958,-10.38882 -14.4683,-18.26651 -14.35455,-34.70091 0.0879,-12.70425 1.08624,-16.80926 9.49464,-39.0417 26.01983,-68.7984 159.06055,-404.295014 165.37947,-417.047108 10.15702,-20.497741 20.05663,-31.240107 36.09315,-39.165782 21.50573,-10.62870801 48.81512,-10.51446881 70.39498,0.294472 17.60889,8.819961 30.15001,25.765835 44.53548,60.177514 13.7011,32.774464 152.3157,376.795674 159.4537,395.740904 14.452,38.35727 13.1873,54.53429 -5.7515,73.56742 -11.1667,11.22227 -20.7736,15.129 -36.9672,15.03301 -23.9033,-0.14162 -36.5327,-10.86199 -50.5777,-42.93227 -7.4962,-17.1167 -32.3173,-80.59025 -35.3808,-90.47739 l -1.2372,-3.9929 H 932.66004 822.96831 l -1.91197,4.88021 c -1.05158,2.68412 -7.97045,21.06897 -15.37525,40.85521 -24.52038,65.52045 -31.77478,79.57166 -44.88596,86.94055 -8.72559,4.90405 -26.8157,6.50637 -37.98093,3.36414 z m 289.6082,-216.59436 c 0,-0.38291 -17.25791,-47.69879 -38.35088,-105.14641 -21.09296,-57.44759 -39.16023,-106.70678 -40.14948,-109.46485 -0.98926,-2.75806 -2.45285,-4.35522 -3.25242,-3.54924 -1.20098,1.21058 -39.02678,104.9942 -71.84306,197.11759 l -7.74393,21.73913 h 80.66986 c 44.36843,0 80.66991,-0.31329 80.66991,-0.69622 z"
     id="path1120" />
  <path
     style="fill:#ffffff;stroke-width:9.8261"
     d="m 1306.6605,553.89691 c -11.8259,-3.23474 -22.0601,-10.58706 -28.211,-20.26703 -11.2605,-17.72127 -10.717,-3.87962 -10.1291,-258.00078 l 0.535,-231.263528 5.144,-11.139164 c 10.7964,-23.3793752 34.3281,-34.5238419 59.3578,-28.111534 14.0741,3.6056362 23.7332,10.125417 30.179,20.370599 10.5958,16.841192 10.0219,2.296165 10.0219,254.017637 0,261.83611 1.1106,241.69441 -14.2698,258.80111 -12.7213,14.14918 -34.4111,20.57546 -52.6278,15.59269 z"
     id="path1159" />
</svg>
